# xmcd
#
# Track frame offsets: 
#        150
#        19203
#        35620
#        52016
#        65717
#        83729
#        101617
#        121748
#        141970
#        160994
#        179202
#        194134
#        213273
#        232899
#        255334
#        276139
#
# Disc length: 3902 seconds
#
# Revision: 0
# Processed by: cddbd v1.5.2PL0 Copyright (c) Steve Scherf et al.
# Submitted via: ExactAudioCopy v1.2
#
DISCID=ec0f3c10
DTITLE=Charlie Landsborough - The Storyteller and Collectors Items, CD1
DYEAR=2010
DGENRE=Country
TTITLE0=My Heart Would Know
TTITLE1=I'm Growing Old
TTITLE2=Special
TTITLE3=Passing Through
TTITLE4=What Colour Is The Wind
TTITLE5=I've Seen Love
TTITLE6=How Do You Do Those Things
TTITLE7=Walking On My Memories
TTITLE8=I Am Red
TTITLE9=A Fathers Song
TTITLE10=What Happened To Love
TTITLE11=Love You Every Second
TTITLE12=You're Still Around [with Commentary]
TTITLE13=Saints
TTITLE14=Five Fingers
TTITLE15=Doddy's Song
EXTD=
EXTT0=
EXTT1=
EXTT2=
EXTT3=
EXTT4=
EXTT5=
EXTT6=
EXTT7=
EXTT8=
EXTT9=
EXTT10=
EXTT11=
EXTT12=
EXTT13=
EXTT14=
EXTT15=
PLAYORDER=
